Coordinates
version=1
nRows=14
nColumns=33
inDegrees=yes

Units are S.I. units (second, meters, Newtons, ...)
Angles are in degrees.

endheader
time	ground_thorax_rot_x	ground_thorax_rot_y	ground_thorax_rot_z	ground_thorax_tx	ground_thorax_ty	ground_thorax_tz	clav_prot_r	clav_elev_r	scapula_abduction_r	scapula_elevation_r	scapula_upward_rot_r	scapula_winging_r	shoulder_elv_r	plane_of_elev_r	axial_rot_r	elbow_flexion_r	pro_sup_r	wrist_flex_r	wrist_dev_r	clav_prot_l	clav_elev_l	scapula_abduction_l	scapula_elevation_l	scapula_upward_rot_l	scapula_winging_l	shoulder_elv_l	plane_of_elev_l	axial_rot_l	elbow_flexion_l	pro_sup_l	wrist_flex_l	wrist_dev_l
      2.72000000	     40.64893331	      8.46190104	     10.27883203	   -221.06051467	    845.80143408	      3.12166203	     12.15992984	     40.82228717	     39.54708167	     45.00000000	    -26.11182810	  -5491.53618277	  -2092.88618326	     33.06825800	     48.75538953	   2892.38068774	     12.88730657	     19.93906823	      6.87111323	      8.71788305	    -45.00000000	    -38.98544345	     45.00000000	    -45.00000000	    816.48592906	  -2250.28506835	    135.00043516	   -179.99999979	   -348.19752518	     40.66312997	      5.43773577	    -23.55821063
      2.73000000	     40.61623500	      8.36475013	     10.06351153	   -222.38656866	    846.36408653	      3.24805860	     12.19988760	     40.66751970	     39.41353386	     45.00000000	    -26.17720387	  -5491.65225377	  -2092.97638686	     33.20096035	     48.56099494	   2892.31067237	     13.28594978	     19.91289337	      6.63743260	      8.75960029	    -45.00000000	    -39.08640286	     45.00000000	    -45.00000000	    816.65137761	  -2250.36593681	    134.94543263	   -179.99999979	   -348.19830896	     40.88340701	      5.45513991	    -23.60088680
      2.74000000	     40.59314873	      8.37308291	     10.13194089	   -223.68730662	    846.89711174	      3.39117106	     12.08290210	     40.79985705	     39.40793585	     45.00000000	    -26.57722861	  -5491.42274397	  -2092.60412599	     33.02480380	     48.65481666	   2892.45599310	     13.76679728	     19.99666128	      6.65089709	      8.80987270	    -45.00000000	    -38.91254279	     45.00000000	    -45.00000000	    816.65547116	  -2250.39149400	    135.15401565	   -179.99999979	   -348.23850575	     41.05464817	      5.37655225	    -23.55567226
      2.75000000	     40.50481321	      8.36748343	     10.13917505	   -224.96774912	    847.39805462	      3.55068490	     12.18575714	     40.59281736	     39.37623587	     45.00000000	    -26.84566335	  -5491.48089921	  -2092.71871668	     33.07637228	     48.41248926	   2892.38740907	     14.36725014	     19.94746369	      6.41841985	      8.94730597	    -45.00000000	    -39.08376761	     45.00000000	    -45.00000000	    816.90474574	  -2250.54456344	    135.24413149	   -179.99999979	   -348.25554317	     41.26698577	      5.38174827	    -23.57570980
      2.76000000	     40.50774828	      8.12579214	      9.70564930	   -226.23069251	    847.86327871	      3.72587660	     12.12233981	     40.56123971	     39.07815340	     45.00000000	    -26.80601907	  -5491.47451037	  -2092.73037674	     33.33504117	     48.22243633	   2892.30008194	     14.89116883	     19.92595846	      6.16352813	      8.87038959	    -45.00000000	    -39.06483521	     45.00000000	    -45.00000000	    816.86997820	  -2250.44541998	    135.14529401	   -179.99999979	   -348.34544247	     41.45508371	      5.42098076	    -23.63454454
      2.77000000	     40.48160500	      8.23909899	      9.88151664	   -227.47810471	    848.28937364	      3.91523271	     12.06280222	     40.53096134	     39.22518986	     45.00000000	    -27.21367982	  -5491.42408072	  -2092.45871966	     33.00292611	     48.35776720	   2892.60047927	     15.51229224	     20.01966784	      6.18133170	      8.89387080	    -45.00000000	    -39.08660692	     45.00000000	    -45.00000000	    817.03594550	  -2250.69771070	    135.33189497	   -179.99999979	   -348.28169814	     41.60797415	      5.31546270	    -23.58418704
      2.78000000	     40.36724528	      8.10566426	      9.73855456	   -228.71455545	    848.67550151	      4.11760241	     12.11622241	     40.44717328	     39.06479445	     45.00000000	    -27.36310807	  -5491.40486669	  -2092.61302334	     33.16860321	     48.18692221	   2892.50214632	     16.23558810	     19.94664224	      5.82709906	      9.00706795	    -45.00000000	    -39.17013153	     45.00000000	    -45.00000000	    817.10867072	  -2250.70060069	    135.43220411	   -179.99999979	   -348.37894663	     41.86241251	      5.34315854	    -23.63794374
      2.79000000	     40.34517734	      7.94112531	      9.53458153	   -229.93403726	    849.01947233	      4.33000438	     12.08026534	     40.38866259	     38.75410287	     45.00000000	    -27.50726399	  -5491.32814449	  -2092.47079662	     33.44401342	     48.22583414	   2892.54601588	     16.96404864	     19.95242513	      5.71517661	      8.98505727	    -45.00000000	    -38.96823262	     45.00000000	    -45.00000000	    817.19132508	  -2250.68108158	    135.31937811	   -179.99999979	   -348.44340703	     42.10414280	      5.28484355	    -23.62670786
      2.80000000	     40.27556582	      8.04654678	      9.62146019	   -231.13789952	    849.32338380	      4.55048617	     12.04539860	     40.33775144	     38.93638229	     45.00000000	    -27.76595154	  -5491.36822846	  -2092.48017915	     33.10126837	     48.13264252	   2892.61632402	     17.76191421	     19.92166515	      5.42800358	      8.99504483	    -45.00000000	    -39.20454726	     45.00000000	    -45.00000000	    817.27767907	  -2250.91530823	    135.60958490	   -179.99999979	   -348.36527531	     42.38731836	      5.23414951	    -23.66643756
      2.81000000	     40.15698359	      7.95203137	      9.57102054	   -232.31584383	    849.58773179	      4.77463675	     12.08230309	     40.25971617	     38.73100626	     45.00000000	    -28.02010965	  -5491.25900009	  -2092.48554536	     33.28626465	     48.14381548	   2892.59924413	     18.74906646	     19.87495762	      5.26600765	      9.08459390	    -45.00000000	    -39.11561141	     45.00000000	    -45.00000000	    817.38840755	  -2250.92029755	    135.62655516	   -179.99999979	   -348.47381434	     42.75313457	      5.16948847	    -23.64736743
      2.82000000	     40.12888400	      7.81942946	      9.36675637	   -233.46806114	    849.81699922	      4.99991822	     12.03394938	     40.21867671	     38.53038863	     45.00000000	    -28.23725431	  -5491.21229050	  -2092.34453325	     33.43046594	     48.14221413	   2892.73608354	     19.67765023	     19.86181244	      5.01316928	      9.08583218	    -45.00000000	    -39.02223533	     45.00000000	    -45.00000000	    817.41662845	  -2250.95450256	    135.57874183	   -179.99999979	   -348.50616964	     43.11378087	      5.12392847	    -23.67149661
      2.83000000	     40.05891720	      7.90642076	      9.45884134	   -234.58686763	    850.01396870	      5.22184831	     12.03743600	     40.13414382	     38.52387079	     45.00000000	    -28.47335216	  -5491.23345721	  -2092.34177960	     33.28721837	     48.10280529	   2892.76990483	     20.66092198	     19.81049266	      4.85759554	      9.08029549	    -45.00000000	    -39.07664004	     45.00000000	    -45.00000000	    817.52956578	  -2251.12915068	    135.73883816	   -179.99999979	   -348.42035167	     43.46665356	      5.02160557	    -23.66709117
      2.84000000	     39.96325079	      7.81105771	      9.32834253	   -235.66933644	    850.18257075	      5.43665621	     12.04846063	     40.09639738	     38.36475175	     45.00000000	    -28.75973988	  -5491.14353233	  -2092.33876061	     33.38811948	     48.09398186	   2892.79317932	     21.74777256	     19.73711481	      4.61032768	      9.17653274	    -45.00000000	    -39.00084543	     45.00000000	    -45.00000000	    817.55947224	  -2251.13147056	    135.70800706	   -179.99999979	   -348.49640099	     43.88053622	      4.97677254	    -23.67309425
      2.85000000	     39.98523323	      7.78003471	      9.34818990	   -236.71659290	    850.32701323	      5.64114425	     12.02370551	     40.00586599	     38.23499316	     45.00000000	    -28.91377305	  -5491.20732527	  -2092.07805462	     33.48153061	     48.07924349	   2893.03284671	     22.75304452	     19.73289324	      4.45446144	      9.12483726	    -45.00000000	    -38.94991429	     45.00000000	    -45.00000000	    817.69365525	  -2251.31391167	    135.80058615	   -179.99999979	   -348.37309617	     44.22979525	      4.88245905	    -23.68582888
